# xmcd
#
# Track frame offsets:
# 150
# 13130
# 25769
# 39612
# 53382
# 67524
# 81490
# 95416
# 109298
# 123046
# 137308
# 155374
# 170884
# 182728
# 198588
# 212664
# 225392
# 241541
# 253594
# 269267
#
# Disc length: 3795 seconds
#
#
# Revision: 0
# Processed by: cddbd v1.5.2PL0 Copyright (c) Steve Scherf et al.
# Submitted via: FreeRIP 2.945 
#
DISCID=fd0ed114
DTITLE=Varios - DivinaExpo
DYEAR=1900
DGENRE=Country
TTITLE0=01-Pra la que eu vou - Bruno e Marrone
TTITLE1=02-Na Sola da Bota - Rio Negro e Solimoes
TTITLE2=03-O que eu to fazendo aqui - Gino e Geno
TTITLE3=04-O Grito da Galera - Rio Negro e Solimoes
TTITLE4=05-Apaziguar - Bruno e Marrone
TTITLE5=06-Aguas de Minha Saudade - DiPaulo e Paulinho
TTITLE6=07-So Voce - Gino e Geno
TTITLE7=08-Alo Mulherada - Teodoro e Sampaio
TTITLE8=09-Credo em cruz Ave Maria - Bruno e Marrone
TTITLE9=10-Tendel - Rio Negro e Solimoes
TTITLE10=11-Trovejou mas nao choveu - Gino e Geno
TTITLE11=12-O bicho vai pegar - Edson e Hudson
TTITLE12=13-Ta Liberado - Bruno e Marrone
TTITLE13=14-Amor Desencontrado - Rio Negro e Solimoes
TTITLE14=15-Cara de Boi - Gino e Geno
TTITLE15=16-Sapateia Galera - Edson e Hudson
TTITLE16=17-Doce Desejo - Bruno e Marrone
TTITLE17=18-Nao Brinque com a Paixao - DiPaulo e Paulinho
TTITLE18=19-Agora e so Alegria - Gino e Geno
TTITLE19=20-Quem bate Apanha - Chanceler e Montenegro
EXTD=
EXTT0=
EXTT1=
EXTT2=
EXTT3=
EXTT4=
EXTT5=
EXTT6=
EXTT7=
EXTT8=
EXTT9=
EXTT10=
EXTT11=
EXTT12=
EXTT13=
EXTT14=
EXTT15=
EXTT16=
EXTT17=
EXTT18=
EXTT19=
PLAYORDER=
